<svg xmlns="http://www.w3.org/2000/svg" xmlns:xlink="http://www.w3.org/1999/xlink" viewBox="0 0 1650.86 1782.95"><defs><style>.cls-1{fill:none;}.cls-2{clip-path:url(#clip-path);}.cls-3{fill:#3b58db;}.cls-4{fill:#3b9fdb;}</style><clipPath id="clip-path" transform="translate(363.86 60.12)"><rect class="cls-1" width="1125" height="2430"/></clipPath></defs><g id="Layer_2" data-name="Layer 2"><g id="Layer_1-2" data-name="Layer 1"><g class="cls-2"><path class="cls-3" d="M-360.5,1588.5c20.88,5.46,124.21-402.83,254-396,31.52,1.66,54,30.43,97.71,87.89C224.59,1587.3,236.42,1618.57,289.5,1654.5c115.63,78.27,306.6,97.15,404,15,124.64-105.13,24.42-315.3,138-392,110.94-74.92,266.59,85.06,366,42,109.26-47.33,156.14-342.29-83-1378-372.33-6-756.67,7-1129,1C-292.42,1109.22-383.3,1582.53-360.5,1588.5Z" transform="translate(363.86 60.12)"/><path class="cls-4" d="M13.6-57.11Q0-57.29-13.5-57.5c-277.92,1166.72-368.8,1640-346,1646,5.65,1.48,17.34-27.35,34-70C-313.85,1394.54-217.61,914.6,13.6-57.11Z" transform="translate(363.86 60.12)"/><path class="cls-4" d="M1234.5,1282.5c-99.41,43.06-255.06-116.92-366-42a115.25,115.25,0,0,0-34.21,35.82c110.82-72,265.33,86,364.21,43.18,17-7.36,32.48-20.72,45.61-41.92A83.79,83.79,0,0,1,1234.5,1282.5Z" transform="translate(363.86 60.12)"/><path class="cls-4" d="M326.5,1617.5c-53.08-35.93-64.91-67.2-298.29-374.11-43.7-57.46-66.19-86.23-97.71-87.89s-61.31,21-88.84,56.3c17-13.06,34.66-20.26,52.84-19.3,31.52,1.66,54,30.43,97.71,87.89C225.59,1587.3,237.42,1618.57,290.5,1654.5c115.63,78.27,306.6,97.15,404,15a168.91,168.91,0,0,0,28.93-31.37C624.11,1713.71,439.4,1693.92,326.5,1617.5Z" transform="translate(363.86 60.12)"/></g></g></g></svg>