<svg xmlns="http://www.w3.org/2000/svg" viewBox="0 0 730.19 115"><defs><style>.cls-1{fill:#b3efff;}</style></defs><g id="Layer_2" data-name="Layer 2"><g id="Layer_1-2" data-name="Layer 1"><path class="cls-1" d="M151.69,115a156.78,156.78,0,0,0,79.77-21.68,2.11,2.11,0,0,1,2.12,0A156.78,156.78,0,0,0,313.35,115a156.73,156.73,0,0,0,79.77-21.68,2.13,2.13,0,0,1,2.13,0A156.78,156.78,0,0,0,475,115a156.78,156.78,0,0,0,79.77-21.68,2.13,2.13,0,0,1,2.13,0A156.75,156.75,0,0,0,636.69,115a156.74,156.74,0,0,0,93.5-30.75V0H0A157.56,157.56,0,0,0,151.69,115Z"/></g></g></svg>